<svg width="48" height="48" viewBox="0 0 48 48" fill="none" xmlns="http://www.w3.org/2000/svg">
<path d="M0 14C0 6.26801 6.26801 0 14 0H34C41.732 0 48 6.26801 48 14V34C48 41.732 41.732 48 34 48H14C6.26801 48 0 41.732 0 34V14Z" fill="white" fill-opacity="0.15"/>
<path d="M34.205 22.8322C34.3989 22.7466 34.5635 22.606 34.6783 22.4279C34.7932 22.2497 34.8532 22.0418 34.851 21.8298C34.8488 21.6178 34.7845 21.4112 34.666 21.2354C34.5475 21.0597 34.3801 20.9225 34.1844 20.841L24.8992 16.6117C24.6169 16.4829 24.3103 16.4163 24 16.4163C23.6897 16.4163 23.3831 16.4829 23.1008 16.6117L13.8167 20.8367C13.6238 20.9211 13.4597 21.06 13.3445 21.2362C13.2293 21.4125 13.1679 21.6184 13.1679 21.829C13.1679 22.0396 13.2293 22.2455 13.3445 22.4218C13.4597 22.598 13.6238 22.7369 13.8167 22.8213L23.1008 27.055C23.3831 27.1838 23.6897 27.2504 24 27.2504C24.3103 27.2504 24.6169 27.1838 24.8992 27.055L34.205 22.8322Z" stroke="#A5D6A7" stroke-width="2.16667" stroke-linecap="round" stroke-linejoin="round"/>
<path d="M34.8333 21.8333V28.3333" stroke="#A5D6A7" stroke-width="2.16667" stroke-linecap="round" stroke-linejoin="round"/>
<path d="M17.5 24.5417V28.3333C17.5 29.1953 18.1848 30.0219 19.4038 30.6314C20.6228 31.2409 22.2761 31.5833 24 31.5833C25.7239 31.5833 27.3772 31.2409 28.5962 30.6314C29.8152 30.0219 30.5 29.1953 30.5 28.3333V24.5417" stroke="#A5D6A7" stroke-width="2.16667" stroke-linecap="round" stroke-linejoin="round"/>
</svg>
